<svg width="59" height="76" viewBox="0 0 59 76" fill="none" xmlns="http://www.w3.org/2000/svg">
    <path fill-rule="evenodd" clip-rule="evenodd"
        d="M26.4469 0.0206039C26.2857 0.0426742 25.8023 0.106248 25.3727 0.161815C20.8584 0.745018 16.703 2.52002 12.9905 5.45107C11.7091 6.46269 9.19795 8.98428 8.09951 10.3623C3.42715 16.2241 0.899708 22.8568 0.117384 31.3096C-0.0590809 33.2163 -0.0318353 38.1811 0.167188 40.3916C1.0501 50.196 4.1543 57.6102 9.69522 63.1485C13.8261 67.2775 18.589 69.6199 24.7867 70.5706C26.5398 70.8396 30.898 70.9454 32.8596 70.7668C41.3467 69.9938 46.9301 66.2458 49.8866 59.3369C51.2283 56.2015 52.0324 52.7816 52.1484 49.717C52.2363 47.3936 51.9528 46.1991 51.1832 45.6512C50.7057 45.311 49.6811 45.2705 49.1927 45.5724C48.6221 45.925 48.4147 46.5108 48.1747 48.4482C47.4662 54.1678 45.8558 58.3224 43.1464 61.4199C40.0115 65.0041 35.6801 66.6456 30.1356 66.351C22.7817 65.9602 17.1724 60.7621 14.2008 51.5845C13.1721 48.4072 12.5451 45.1276 12.1358 40.7822C11.9699 39.0198 11.9041 32.1136 12.032 29.8852C12.359 24.1919 13.0766 20.0277 14.3826 16.2433C16.6148 9.77529 20.9452 5.52822 26.2516 4.60263C27.8254 4.32812 30.3777 4.41201 32.0086 4.79189C37.0287 5.96103 41.2885 10.1824 43.4437 16.124C43.87 17.2991 44.4995 19.7219 44.6699 20.8432C44.7921 21.6474 44.7975 21.658 45.1755 21.8509C45.3856 21.9581 45.568 22.0318 45.5806 22.0146C45.5932 21.9975 45.7064 21.7197 45.832 21.3975C46.2666 20.2832 47.8631 16.702 48.8576 14.6104C50.3171 11.5409 52.0516 8.22685 53.8548 5.06211C54.3835 4.13428 54.816 3.35801 54.816 3.33701C54.816 3.31611 54.6165 3.1874 54.3726 3.05107L53.9292 2.80322L53.4734 3.09228C52.8795 3.46894 51.626 3.94912 50.7717 4.12724C49.9655 4.29541 48.2038 4.31357 47.2477 4.16367C46.0633 3.97803 44.4168 3.49541 42.0752 2.64765C38.6122 1.39385 36.0904 0.705467 33.269 0.243846C32.2624 0.0790995 31.4902 0.0326159 29.3766 0.00927601C27.9264 -0.00664195 26.608 -0.00156409 26.4469 0.0206039ZM54.9321 9.4123C51.4482 15.6478 49.8667 18.7002 47.9749 22.8395L47.4052 24.0861L48.0915 24.4317C48.4689 24.6219 48.8196 24.7635 48.8708 24.7464C48.9219 24.7294 49.2847 23.9908 49.6771 23.1053C51.7638 18.3948 54.1943 13.6522 57.3211 8.18984L58.6446 5.87744L58.3918 5.67851C58.2527 5.56904 57.9666 5.38154 57.7559 5.26191L57.3727 5.04434L54.9321 9.4123ZM27.8141 7.43545C25.0539 7.94141 22.66 9.29551 20.9131 11.3389C17.7591 15.0283 15.9884 20.9448 15.4623 29.5518C15.3341 31.6489 15.3353 36.8172 15.4645 38.955C16.0083 47.9584 18.2019 55.2879 21.7682 60.0189C23.4385 62.2347 25.5898 63.8393 27.8436 64.55C28.9033 64.8842 29.0348 64.8817 29.0348 64.5275C29.0348 64.294 28.9681 64.22 28.6197 64.0666C22.3896 61.3229 18.4042 53.2221 17.2607 40.9775C17.0526 38.7498 16.9687 32.5583 17.1124 30.04C17.5471 22.422 18.8697 17.2204 21.3085 13.538C21.9544 12.5627 23.4688 10.9929 24.2984 10.4385C26.3707 9.0539 28.7564 8.45888 31.3911 8.66943C33.6135 8.84697 36.0902 9.90264 38.557 11.7237L39.5328 12.444L39.5648 12.0379C39.5956 11.6471 39.5719 11.6089 38.9301 11.0189C36.9754 9.22217 35.1043 8.1374 32.9732 7.56513C31.9574 7.29228 29.0004 7.21807 27.8141 7.43545ZM55.0728 48.082C55.0434 48.2835 54.9927 48.7778 54.9601 49.1807C54.241 58.058 52.3102 62.9076 47.7256 67.3503C43.7822 71.1718 38.8126 73.225 32.8922 73.4789C26.3631 73.7589 20.6339 72.4709 15.9841 69.6776C15.547 69.415 15.1624 69.2002 15.1296 69.2002C15.0968 69.2002 15.0699 69.308 15.0699 69.4397C15.0699 69.6366 15.2654 69.809 16.1686 70.4079C20.071 72.996 24.2 74.495 28.7341 74.9697C30.3648 75.1405 34.5974 75.0348 36.2125 74.783C42.4635 73.8084 46.7969 71.4825 50.4452 67.1436C51.2853 66.1445 52.5725 64.1026 53.2993 62.616C54.9935 59.1513 56.0072 55.3318 56.5286 50.4502C56.7597 48.2866 56.7993 48.4466 55.9337 48.052C55.5278 47.8671 55.1802 47.7158 55.1609 47.7158C55.1418 47.7158 55.1022 47.8807 55.0728 48.082Z"
        fill="#286594" />
</svg>